<?xml version="1.0" encoding="UTF-8" standalone="no"?>
<!-- Created with Inkscape (http://www.inkscape.org/) -->

<svg
   width="129.24808mm"
   height="83.024109mm"
   viewBox="0 0 129.24808 83.024109"
   version="1.1"
   id="svg4701"
   inkscape:version="1.1.2 (0a00cf5339, 2022-02-04)"
   sodipodi:docname="logo.svg"
   xmlns:inkscape="http://www.inkscape.org/namespaces/inkscape"
   xmlns:sodipodi="http://sodipodi.sourceforge.net/DTD/sodipodi-0.dtd"
   xmlns="http://www.w3.org/2000/svg"
   xmlns:svg="http://www.w3.org/2000/svg">
  <sodipodi:namedview
     id="namedview4703"
     pagecolor="#ffffff"
     bordercolor="#666666"
     borderopacity="1.0"
     inkscape:pageshadow="2"
     inkscape:pageopacity="0.0"
     inkscape:pagecheckerboard="0"
     inkscape:document-units="mm"
     showgrid="false"
     inkscape:zoom="0.75544332"
     inkscape:cx="937.8599"
     inkscape:cy="315.0468"
     inkscape:window-width="2048"
     inkscape:window-height="1115"
     inkscape:window-x="0"
     inkscape:window-y="0"
     inkscape:window-maximized="1"
     inkscape:current-layer="g4978"
     showguides="false" />
  <defs
     id="defs4698">
    <rect
       x="86.61615"
       y="242.04021"
       width="318.47461"
       height="55.236176"
       id="rect92046" />
  </defs>
  <g
     inkscape:label="Layer 1"
     inkscape:groupmode="layer"
     id="layer1"
     transform="translate(-39.572174,-12.107486)">
    <g
       id="g4978"
       transform="matrix(0.26458333,0,0,0.26458333,-121.40806,139.22857)">
      <g
         fill="#f9f9f9"
         fill-rule="evenodd"
         id="g4871"
         transform="matrix(2.7252793,0,0,2.8324102,676.73581,-513.32845)">
        <path
           d="m 19,21 -0.1,0.2 c -0.1,0.1 -0.3,0.8 -0.5,1.5 L 18,24 v 0 1.5 c 0,0.8 0,1.7 0,2 0,0.2 0,5.6 0,12 V 51 51 l -0.1,0.7 c 0,0.4 0.2,1.8 0.5,3 L 19,57 v 0 0.5 c 0,0.2 0,0.7 0,1 v 0.5 0 l -0.1,0.7 c 0,0.4 0.2,1.8 0.5,3 L 20,65 v 0 0.5 c 0,0.2 0,0.7 0,1 v 0.5 0 0.7 c 0,0.4 0.2,1.1 0.5,1.5 L 21,70 v 0 0.5 c 0,0.2 0.2,0.5 0.5,0.5 H 22 v 0 0.5 c 0,0.2 2.7,0.5 6,0.5 3.3,0 6,-0.3 6,-0.5 V 71 71 h 0.4 c 0.2,0 0.7,-0.5 1.1,-1 0.3,-0.7 8.1,-1 20,-1 H 75 v 0 0.5 c 0,0.2 0.2,0.5 0.5,0.5 H 76 v 0 0.5 c 0,0.2 0.2,0.5 0.5,0.5 H 77 v 0 0.5 c 0,0.2 3.6,0.5 8,0.5 6.2,0 8.1,-0.4 8.5,-1.5 L 94,69 v 0 l 0.5,-2.3 c 0.3,-1.2 0.5,-2.6 0.5,-3 V 63 l -0.4,-1 0.7,-1 H 96 V 57.5 54 54 h 0.5 C 96.7,54 97,51.5 97,48.5 97,45.4 96.7,43 96.5,43 H 96 v 0 L 95,41.5 94,40 v 0 -4.5 c 0,-2.5 0,-4.8 0,-5 0,-0.3 0,-1.4 0,-2.5 v -2 0 L 93.5,25 93,24 v 0 -0.5 C 93,23.2 92.7,23 92.5,23 H 92 v 0 -0.5 l 1,-0.5 1.5,1.6 c 0.9,1.1 1.5,3.8 1.5,7.5 0,3.2 0,6.8 0,7.9 v 2 0 l 0.7,0.5 c 0.4,0.3 0.9,2.5 1.1,4.8 C 98,48.6 97.6,54.8 96.9,60 96.3,65.3 95.4,70.2 95,70.8 94.7,71.4 94,72 93.6,72 H 93 v 0 0.5 C 93,72.7 89.2,73 84.6,73 78.3,73 75.9,72.6 75,71.5 73.9,70.2 70.4,70 55.4,70 c -11.1,0 -18.6,0.3 -19,1 -0.3,0.5 -1,1 -1.5,1 H 34 v 0 0.5 C 34,72.7 31.1,73 27.6,73 23.7,73 20.8,72.5 20.2,71.7 19.6,71 18.6,66.9 18,62.6 17.4,58.3 16.9,47.2 17,37.9 17,27.3 17.3,21 18,21 h 1"
           id="path4843" />
        <path
           d="M 23,67 V 63.5 60 H 22.3 L 21.6,59 22,58 v -1 c 0,-0.6 0,-1.3 0,-1.5 0,-0.3 0,-1.2 0,-2 V 52 52 h 0.5 c 0.2,0 2.5,0 5,0 H 32 v 0 5.5 c 0,3 0,5.7 0,6 0,0.2 0,1.4 0,2.5 v 2 0 h -2.3 c -1.2,0 -3.3,-0.2 -4.5,-0.5 L 23,67"
           id="path4845" />
        <path
           d="m 79,52 h 2 c 1.1,0 2.2,0 2.5,0 0.2,0 2.5,0 5,0 H 93 v 0 0.5 c 0,0.2 0,0.7 0,1 v 0.5 0 0.5 c 0,0.2 0,0.7 0,1 v 0.5 0 l -0.5,3 -0.5,3 v 0 0.5 c 0,0.2 0,0.7 0,1 v 0.5 0 h -0.5 c -0.3,0 -0.5,0.2 -0.5,0.5 0,0.2 0,1.1 0,2 v 1.5 0 h -0.5 c -0.3,0 -3,0 -6,0 H 79 v -8 -8"
           id="path4847" />
        <path
           d="m 36,66 v -0.5 c 0,-0.3 0,-1.9 0,-3.5 V 59 H 55.5 75 v 0 3.5 3.5 0 H 55.5 36 m 1.3,-3.2 C 36.8,61.9 38.5,60 40,60 c 0.2,0 1.1,0.4 1.8,0.9 1.9,1.1 0.7,3.1 -1.8,3.1 -1.1,0 -2.3,-0.6 -2.7,-1.2 m 8,0 C 44.1,60.6 47.7,60 60,60.2 c 9.3,0.2 12.4,0.6 12.2,1.5 -0.3,1.7 -26,2.8 -26.9,1.1"
           id="path4849" />
        <path
           d="m 36,52 h 3.5 c 1.9,0 3.7,0 4,0 H 44 v 0 l 0.5,0.5 0.5,0.1 1,0.7 V 54 h 2 c 1.1,0 2.3,0 2.7,0 0.4,0 2.9,-0.2 5.5,-0.5 L 61,53 v 0 l 1,-0.5 1,-0.5 v 0 h 5.4 c 3,0 5.7,0.4 6,0.9 0.3,0.5 0.6,1.1 0.6,1.5 V 55 55 H 70.5 C 68,55 59.2,55 51,55 38.3,55 36,54.7 36,53.5 V 52"
           id="path4851" />
        <path
           d="m 59,43 v 3.5 3.5 0 h -0.8 c -0.4,0 -3,-0.1 -5.7,-0.3 -4.9,-0.2 -5,-0.4 -5,-3.2 0,-3 0,-3.1 5.7,-3.3 L 59,43 m -10,3.5 c 0,-1.8 3.3,-2.9 6,-2 3.6,1.1 2.3,3.5 -2,3.5 -2.9,0 -4,-0.5 -4,-1.5"
           id="path4853" />
        <path
           d="M 22,48.5 21,48 v -1 -4.5 c 0,-2.5 0,-4.8 0,-5 0,-0.3 0,-3 0,-6 V 26 26 l 0.6,-0.5 c 0.4,-0.3 3.5,-0.5 7,-0.5 3.5,0 6.6,0 6.9,0 H 36 v 0 4.5 4.5 0 l -0.8,-0.1 c -0.4,0 -3.1,0.2 -6,0.5 L 24,35 v 0 h -0.5 c -0.3,0 -0.5,0.4 -0.5,1 0,0.5 0.2,1 0.5,1 H 24 v 0 l 4,0.5 4,0.5 v 0 l -0.3,5.2 C 31.5,48.4 31.4,48.5 28,48.7 26,48.9 24.1,49 23.7,49 H 23 22.2 L 22,48.5"
           id="path4855" />
        <path
           d="m 36,49 v -1.5 c 0,-0.9 0,-1.8 0,-2 0,-0.3 0,-0.8 0,-1 V 44 44 l 0.7,-0.1 c 0.4,0 2,0.2 3.5,0.5 L 43,45 h 1 v 0.5 c 0,0.2 0,0.7 0,1 v 0.5 0 1 h -1 l -2.8,0.5 C 38.7,48.8 37.1,49 36.7,49 H 36"
           id="path4857" />
        <path
           d="m 64,49 -0.2,-0.3 c 0,-0.1 -0.3,-0.9 -0.5,-1.8 C 63.1,46 63.1,45 63.4,44.7 L 64,44 v 0 h 9.5 c 5.2,0 9.7,0 10,0 0.2,0 2.5,0 5,0 H 93 v 0 0.5 c 0,0.2 0,0.7 0,1 0,0.2 0,1.1 0,2 v 1.5 0 h -4.5 c -2.5,0 -4.8,0 -5,0 -0.3,0 -4.8,0 -10,0 H 64"
           id="path4859" />
        <path
           d="m 36,41 v -0.5 c 0,-0.3 0,-1 0,-1.5 0,-0.5 0.4,-1.1 1,-1.5 L 38,37 v 0 h 1.5 c 0.8,0 1.7,0 2,0 0.2,0 0.5,-0.3 0.5,-0.5 V 36 36 l 1,-1 1,-1 v 0 h 0.5 l 0.5,1 v 0.9 c 0,0.5 -2,1.5 -4.3,2.2 -3.5,1 -3.9,1.3 -1.9,1.6 1.4,0.2 3.4,-0.1 4.5,-0.7 1.2,-0.6 2.5,-1.1 2.9,-1.1 L 47,38 v 0 0.3 c 0,0.2 -0.3,0.6 -0.5,1 L 46,40 v -0.4 l -0.8,0.6 -0.7,0.3 -0.8,0.2 v 0 L 43,41.3 42,41 h -1 c -0.6,0 -1.3,0 -1.5,0 -0.3,0 -1.2,0 -2,0 H 36"
           id="path4861" />
        <path
           d="m 63,40 h -0.5 c -0.3,0 -0.8,0 -1,0 H 61 v 0 -0.5 C 61,39.2 60.5,39 60,39 59.4,39 59,37.2 59,35 V 31 H 58 57.5 C 57.2,31 57,30.7 57,30.5 V 30 30 h 1.5 C 59.3,30 60,29.3 60,28.5 60,27.4 61.1,27 64,27 h 4 v 0 L 69.5,25.5 71,24 v 0 l 0.7,-0.5 C 72.1,23.2 72.8,23 73.2,23 H 74 v 0 l 0.7,-0.5 C 75.1,22.2 75.8,22 76.2,22 H 77 v 0.5 0.5 h -1 -0.7 c -0.4,0 -0.8,0.2 -1,0.5 L 74,24 v 0 h -0.8 c -0.4,0 -1.1,0.2 -1.5,0.5 L 71,25 v 0 H 70.5 C 70.2,25 70,25.2 70,25.5 V 26 26 H 69.5 C 69.2,26 69,26.2 69,26.5 V 27 27 H 68.5 C 68.2,27 68,27.2 68,27.5 v 0.5 0 h -2 -2 v 0 h -0.5 c -0.3,0 -1,0 -1.5,0 -0.6,0 -1,0.6 -1,1.5 0,0.8 0.2,1.5 0.5,1.5 0.2,0 0.7,0 1,0 H 63 v 0 l 3,0.5 3,0.5 v 0 0.5 c 0,0.2 0.2,0.5 0.5,0.5 H 70 v 0 0.5 c 0,0.2 0.2,0.5 0.5,0.5 H 71 v 0 l 1.5,0.5 1.5,0.5 v 0 0.5 c 0,0.2 0.2,0.5 0.5,0.5 H 75 v 0 2 2 0.6 L 74,41.3 73,41 h -0.5 c -0.3,0 -2.1,0 -4,0 H 65 L 64.1,41.3 63,40.6"
           id="path4863" />
        <path
           d="m 79,41 v -0.5 c 0,-0.3 0,-3.7 0,-7.5 v -7 h 5.3 c 2.9,0 5.6,0.2 6,0.5 L 91,27 v 0 0.7 c 0,0.4 -0.2,3.6 -0.5,7 L 90,41 v 0 h -1.5 c -0.9,0 -1.8,0 -2,0 -0.3,0 -2.1,0 -4,0 H 79"
           id="path4865" />
        <path
           d="m 51,39 v -2 -2 0 l 0.6,-0.5 c 0.4,-0.3 1.3,-0.5 2,-0.5 0.8,0 1.4,1 1.4,2.5 0,1.5 -0.6,2.5 -1.5,2.5 -0.9,0 -1.8,0 -2,0 H 51"
           id="path4867" />
        <path
           d="m 74,31 h -0.5 c -0.3,0 -0.8,0 -1,0 H 72 v 0 -1.5 -1.5 0 h 1.5 c 0.8,0 1.5,0.4 1.5,1 0,0.5 0,1.2 0,1.5 V 31 32.1 L 74.2,32"
           id="path4869" />
      </g>
      <text
         xml:space="preserve"
         style="font-style:normal;font-variant:normal;font-weight:normal;font-stretch:normal;font-size:67.2663px;line-height:1.25;font-family:'Futura MdCn BT';-inkscape-font-specification:'Futura MdCn BT';stroke-width:1.05104"
         x="757.56744"
         y="-292.76566"
         id="text27048"
         transform="scale(0.97016538,1.0307521)"><tspan
           sodipodi:role="line"
           id="tspan27046"
           x="757.56744"
           y="-292.76566"
           style="font-style:normal;font-variant:normal;font-weight:normal;font-stretch:normal;font-family:'Futura MdCn BT';-inkscape-font-specification:'Futura MdCn BT';stroke-width:1.05104">nft-crafts.io</tspan></text>
      <g
         id="g159864"
         transform="matrix(2.6909683,0,0,2.1832602,689.40296,-522.14622)">
        <g
           fill="#f9f9f9"
           id="g159842">
          <path
             d="M 85.1,73.2 C 79.5,73 76.3,72.4 75.3,71.5 73.2,69.3 38.4,69.4 35.6,71.5 33.6,73 25.5,73.5 21.4,72.4 19.5,71.9 19.1,70.7 18.1,63.1 17.5,58.3 17,46.8 17,37.6 V 20.8 l 13,0.3 c 7.2,0.2 13,0 13,-0.4 0,-0.5 0.5,-0.5 1,-0.2 0.6,0.4 0.8,1.1 0.5,1.6 -0.4,0.5 -0.3,0.9 0.2,0.9 0.4,0 0.7,3.1 0.5,7 l -0.4,7 -4.1,1.1 c -2.3,0.7 -3.6,1.4 -2.8,1.7 0.7,0.2 3.1,-0.1 5.2,-0.8 3.4,-1.1 3.8,-1.7 4.1,-4.9 l 0.3,-3.6 h 6 c 4.8,0 6.1,-0.4 6.7,-1.7 0.5,-1.2 1.8,-1.8 4.2,-1.8 2.8,0 3.6,-0.5 4.4,-2.7 0.6,-1.6 1.1,-2.3 1.1,-1.6 0.1,0.6 1,0.9 2.1,0.6 1.1,-0.3 1.8,-0.8 1.6,-1.2 -0.3,-0.4 -0.1,-1.3 0.5,-2.1 0.7,-1.3 0.9,-1.2 0.9,0.3 0,1.5 1.1,1.7 8.9,1.7 4.9,0 9.6,0.3 10.5,0.6 1.3,0.5 1.6,2.3 1.6,9.4 0,5.6 0.4,9.1 1.1,9.6 2,1.2 -0.6,29.7 -2.9,31.4 -0.4,0.3 -4.5,0.4 -9.1,0.2 z"
             id="path159840" />
        </g>
        <g
           fill="#909090"
           id="g159846">
          <path
             d="m 75.1,71.3 c -1.3,-1.4 -4.6,-1.5 -28,-1.2 L 20.5,70.5 19.4,62 C 18.7,57.3 18.1,46.7 18.1,38.4 18,23.5 18,23.3 20.4,22.1 c 3.1,-1.7 21,-1.1 22.8,0.7 0.6,0.6 1.4,4.1 1.6,7.6 l 0.4,6.5 -4.3,1.2 -4.4,1.2 3,0.8 c 1.7,0.5 4.2,0.6 5.7,0.3 2.4,-0.5 2.7,-0.9 2.1,-3.5 -0.8,-4.2 1.9,-6.9 6.9,-6.9 3.7,0 3.8,0.1 3.8,3.8 0,6 0.9,6.6 10.1,7.1 l 8.2,0.3 -0.6,-2.3 C 75.3,37.6 75,36.2 75,35.8 75,35.5 73.7,34.7 72,34.1 70.4,33.6 69,32.6 69,32.1 69,31.5 67.4,31 65.5,31 63.1,31 62,30.5 62,29.5 c 0,-1 1,-1.5 3.4,-1.5 1.9,0 3.6,-0.3 3.8,-0.7 0.2,-0.5 2.2,-1.8 4.4,-3.1 3.3,-1.7 5.8,-2.2 11.7,-2.2 8.8,0 8.7,-0.2 8.7,11 0,4.3 0.5,8.2 1,8.5 2.4,1.5 0,26.5 -2.8,29.8 -2.1,2.4 -15,2.4 -17.1,0 z M 32,60 v -8 h -5.6 -5.6 l 0.6,4 c 0.3,2.2 0.9,5.8 1.2,8 0.6,4 0.6,4 5,4 H 32 Z m 60.4,2.8 c 0.3,-2.9 0.6,-6.5 0.6,-8 V 52 H 85.5 78 v 8 8 h 6.9 6.8 z m -17,1.6 c 0.3,-0.8 0.3,-2.6 0,-4 L 74.8,58 H 56.5 c -10.1,0 -19,0.3 -19.9,0.6 -1,0.4 -1.6,1.8 -1.6,4 V 66 h 19.9 c 17.2,0 20,-0.2 20.5,-1.6 z M 59.5,46.5 c 0,-3 0,-3 -6.2,-3.3 L 47,42.9 v 3.6 3.6 l 6.3,-0.3 c 6.2,-0.3 6.2,-0.3 6.2,-3.3 z M 32,43 v -6 h -4 c -2.2,0 -4,-0.4 -4,-1 0,-0.6 2.7,-1 6,-1 h 6 V 30 25 H 28.5 21 v 12 12 h 5.5 5.5 z m 12,3.5 C 44,44.2 43.6,44 39.5,44 35.4,44 35,44.2 35,46.5 c 0,2.3 0.4,2.5 4.5,2.5 4.1,0 4.5,-0.2 4.5,-2.5 z m 50,0 V 44 H 78.5 63 V 46.5 49 H 78.5 94 Z m -3,-13 V 26 H 84.5 78 V 33.5 41 H 84.5 91 Z M 56,37 c 0,-2.5 -0.4,-3 -2.5,-3 -2.1,0 -2.5,0.5 -2.5,3 0,2.5 0.4,3 2.5,3 2.1,0 2.5,-0.5 2.5,-3 z M 75.4,31.1 C 76.3,29.7 75,27 73.4,27 72.6,27 72,27.8 72,28.8 c 0,2.9 2.2,4.3 3.4,2.3 z"
             id="path159844" />
        </g>
        <g
           fill="#191919"
           id="g159850">
          <path
             d="m 75.1,71.3 c -1.3,-1.4 -4.6,-1.5 -28,-1.2 L 20.5,70.5 19.4,62 C 18.7,57.3 18.1,46.7 18.1,38.4 18,25.4 18.2,23.1 19.6,22.6 22.5,21.5 38.4,22 41,23.3 c 2.2,1.1 2.5,1.9 2.5,6.7 0,5 -0.3,5.6 -3.2,7.6 l -3.2,2.2 3,0.6 c 1.7,0.3 4.2,0.3 5.5,0 1.9,-0.5 2.4,-1.3 2.4,-4 0,-3.7 0.3,-3.9 6.3,-4.9 3.6,-0.6 3.7,-0.5 3.7,2.7 0,5.6 1.1,6.2 10.1,6.7 l 8.2,0.3 -0.6,-2.3 C 75.3,37.6 75,36.2 75,35.8 75,35.5 73.7,34.7 72,34.1 70.4,33.6 69,32.6 69,32.1 69,31.5 67.4,31 65.5,31 63.1,31 62,30.5 62,29.5 c 0,-1 1,-1.5 3.4,-1.5 1.9,0 3.6,-0.3 3.8,-0.7 1,-2.4 6.9,-4.1 14.5,-4.2 9.8,-0.3 10.3,0.2 10.3,10.8 0,3.8 0.5,7.3 1,7.6 2.4,1.5 0,26.5 -2.8,29.8 -2.1,2.4 -15,2.4 -17.1,0 z M 33,60.1 c 0,-4.3 -0.2,-8 -0.4,-8.2 -0.2,-0.2 -3,-0.2 -6.1,-0.1 l -5.6,0.4 0.5,3.9 c 1.9,13 1.3,11.8 5.9,12.1 2.3,0.2 4.5,0.2 5,0 C 32.7,68 33,64.4 33,60.1 Z m 59.4,2.7 c 0.3,-2.9 0.6,-6.5 0.6,-8 V 52 H 85.5 78 v 8 8 h 6.9 6.8 z m -17,1.6 c 0.3,-0.8 0.3,-2.6 0,-4 L 74.8,58 H 56.5 c -10.1,0 -19,0.3 -19.9,0.6 -1,0.4 -1.6,1.8 -1.6,4 V 66 h 19.9 c 17.2,0 20,-0.2 20.5,-1.6 z M 76,54.1 c 0,-2.7 -1.5,-3.4 -3,-1.6 -1,1.2 -4.5,1.5 -19.1,1.5 -10.8,0 -18,0.4 -18.4,1 -0.4,0.7 6.5,1 19.9,1 C 75.1,56 76,55.9 76,54.1 Z M 59.5,46.5 c 0,-3 0,-3 -6.2,-3.3 L 47,42.9 v 3.6 3.6 l 6.3,-0.3 c 6.2,-0.3 6.2,-0.3 6.2,-3.3 z M 32,43 v -6 h -4 c -2.2,0 -4,-0.4 -4,-1 0,-0.6 2.7,-1 6,-1 h 6 V 30 25 H 28.5 21 v 12 12 h 5.5 5.5 z m 12,3.5 C 44,44.2 43.6,44 39.5,44 35.4,44 35,44.2 35,46.5 c 0,2.3 0.4,2.5 4.5,2.5 4.1,0 4.5,-0.2 4.5,-2.5 z m 50,0 V 44 H 78.5 63 V 46.5 49 H 78.5 94 Z m -3,-13 V 26 H 84.5 78 V 33.5 41 H 84.5 91 Z M 56,37 c 0,-2.5 -0.4,-3 -2.5,-3 -2.1,0 -2.5,0.5 -2.5,3 0,2.5 0.4,3 2.5,3 2.1,0 2.5,-0.5 2.5,-3 z M 42,29.5 C 42,27.1 41.5,26 40.5,26 c -1,0 -1.5,1.1 -1.5,3.5 0,2.4 0.5,3.5 1.5,3.5 1,0 1.5,-1.1 1.5,-3.5 z m 33.4,1.6 C 76.3,29.7 75,27 73.4,27 72.6,27 72,27.8 72,28.8 c 0,2.9 2.2,4.3 3.4,2.3 z"
             id="path159848" />
        </g>
      </g>
      <path
         style="font-variation-settings:normal;opacity:1;vector-effect:none;fill:#000000;fill-opacity:1;stroke-width:0.687354;stroke-linecap:butt;stroke-linejoin:miter;stroke-miterlimit:4;stroke-dasharray:none;stroke-dashoffset:0;stroke-opacity:1;-inkscape-stroke:none;stop-color:#000000;stop-opacity:1"
         id="path65776"
         d="m 684.26974,-238.53193 c 6.84323,-3.56651 13.29558,-8.02245 20.45479,-10.90392 9.03605,-3.63691 19.50531,-6.36815 29.02652,-7.62708 6.36424,-0.84151 12.79798,-0.90966 19.19697,-1.36451 7.5588,0.39298 15.1529,0.30974 22.67644,1.17896 7.55057,0.87232 14.96646,2.76319 22.46641,4.03651 10.11299,1.71696 20.24485,3.3059 30.3708,4.93402 15.89171,2.55518 44.34787,7.3099 60.49269,8.81299 8.9422,0.8325 17.93305,0.89626 26.89959,1.3444 9.11755,-0.58806 18.30377,-0.43923 27.35261,-1.76417 6.17849,-0.90466 12.18781,-2.8976 18.13441,-4.89612 11.36316,-3.81891 24.36355,-10.45167 35.20243,-15.41162 33.1995,-15.1922 11.4013,-4.33199 44.6219,-21.75854 1.1577,-0.89451 -10.7451,-18.29414 -11.9028,-17.39965 v 0 c -7.6309,3.81769 -15.392,7.35476 -22.8931,11.45304 -10.26991,5.61107 -25.52415,16.02025 -36.62805,21.12204 -4.85002,2.22843 -9.83949,4.25376 -15.00696,5.42616 -12.48747,2.83316 -19.50383,1.57082 -31.90785,0.82491 -30.04654,-3.76099 -22.65413,-2.61304 -54.54407,-7.60611 -10.373,-1.62411 -20.69671,-3.61854 -31.09944,-5.01118 -29.93833,-4.00793 -60.23729,-5.99079 -90.30976,-2.25033 -6.66316,1.41259 -13.43189,2.34769 -19.98945,4.23776 -15.7473,4.53881 -31.54057,12.79678 -42.66523,25.7811 -1.11201,1.29791 -1.97698,2.8126 -2.9655,4.21891 -0.17447,0.22671 2.84218,2.84915 3.01665,2.62243 z" />
      <text
         xml:space="preserve"
         style="font-style:normal;font-variant:normal;font-weight:normal;font-stretch:normal;font-size:32px;line-height:1.25;font-family:'Futura MdCn BT';-inkscape-font-specification:'Futura MdCn BT';stroke-width:0.987843"
         x="721.64679"
         y="-190.26918"
         id="text20270"
         transform="scale(0.98784302,1.0123066)"><tspan
           sodipodi:role="line"
           id="tspan20268"
           x="721.64679"
           y="-190.26918"
           style="font-size:32px;stroke-width:0.987843">CRAFT <tspan
   style="font-style:normal;font-variant:normal;font-weight:normal;font-stretch:normal;font-size:32px;font-family:'Futura MdCn BT';-inkscape-font-specification:'Futura MdCn BT';stroke-width:0.987843"
   id="tspan34650">FOR</tspan> THE DIGITAL AGE</tspan></text>
    </g>
  </g>
</svg>
